# xmcd CD database file
#
# Track frame offsets:
#	150
#	29346
#	60738
#	85711
#	111750
#	139747
#	164803
#	190152
#	217947
#	239047
#	267932
#
# Disc length: 3868 seconds
#
# Revision: 1
# Processed by: cddbd v1.5.1PL0 Copyright (c) Steve Scherf et al.
# Submitted via: CDex 1.51
#
DISCID=9e0f1a0b
DTITLE=Don Sickler Quintet - Reflections
DYEAR=2002
DGENRE=Jazz
TTITLE0=Bee Tee's Minor Plea
TTITLE1=Soft Shoulder
TTITLE2=I Didn't
TTITLE3=Gone But Not Forgotten
TTITLE4=The Grand Valse
TTITLE5=Song For Richard
TTITLE6=Swing Spring
TTITLE7=Politely
TTITLE8=Minor Reflections
TTITLE9=Miles Ahead
TTITLE10=Denial
EXTD=YEAR: 2002
EXTT0=
EXTT1=
EXTT2=
EXTT3=
EXTT4=
EXTT5=
EXTT6=
EXTT7=
EXTT8=
EXTT9=
EXTT10=
PLAYORDER=
